<?xml version="1.0" standalone="no"?><!DOCTYPE svg PUBLIC "-//W3C//DTD SVG 1.1//EN" "http://www.w3.org/Graphics/SVG/1.1/DTD/svg11.dtd"><svg class="icon" width="200px" height="200.00px" viewBox="0 0 1024 1024" version="1.1" xmlns="http://www.w3.org/2000/svg"><path d="M255.799652 73.672348c9.260522-5.231304 18.977391-10.529391 28.226783-15.270957l254.185739 260.463305H44.688696a523.52 523.52 0 0 1 69.175652-119.140174c11.798261-14.770087 24.119652-29.573565 37.954782-43.76487a483.005217 483.005217 0 0 1 104.013913-82.287304h-0.033391z" fill="#F97819" /><path d="M20.48 378.212174l-0.022261 0.033391c2.582261-11.041391 9.73913-31.955478 9.739131-31.955478h357.220173L39.379478 702.70887a532.123826 532.123826 0 0 1-32.734608-133.453913 544.979478 544.979478 0 0 1-3.072-58.10087A514.370783 514.370783 0 0 1 20.435478 378.212174h0.055652z" fill="#FFC41B" /><path d="M318.809043 483.372522h0.055653c-2.56 14.825739 0 493.523478 0 493.523478a521.572174 521.572174 0 0 1-162.56-107.01913 498.966261 498.966261 0 0 1-82.142609-104.42574c-5.220174-9.71687-11.041391-18.95513-15.760696-28.705391l260.407652-253.373217z" fill="#98D326" /><path d="M346.334609 634.167652h-0.044522c8.904348 12.243478 356.418783 348.16 356.418783 348.16a550.066087 550.066087 0 0 1-133.676522 32.623305 549.420522 549.420522 0 0 1-58.156522 3.060869 520.637217 520.637217 0 0 1-133.086609-17.363478c-9.97287-3.550609-20.947478-6.600348-31.454608-9.672348V634.167652z" fill="#51D81E" /><path d="M483.372522 716.421565c15.337739 2.593391 493.523478 0 493.523478 0a521.850435 521.850435 0 0 1-107.01913 162.604522 497.352348 497.352348 0 0 1-104.42574 82.086956c-9.71687 5.264696-18.93287 11.041391-28.672 15.771827L483.372522 716.443826v-0.022261z" fill="#01B2FD" /><path d="M981.337043 318.864696l0.022261 0.055652c16.806957 41.883826 27.525565 86.906435 33.625044 133.999304 2.014609 19.300174 3.049739 38.678261 3.027478 58.123131 0 44.855652-5.821217 89.544348-17.307826 132.87513-3.57287 10.963478-6.611478 20.925217-9.705739 31.387826H634.167652l347.158261-356.441043z" fill="#5286E3" /><path d="M865.313391 151.81913c32.634435 31.276522 59.469913 66.604522 82.098087 104.570435 5.253565 9.260522 11.041391 18.432 15.771826 28.16l-260.474434 253.662609V44.688696a521.650087 521.650087 0 0 1 162.615652 107.130434z" fill="#5D66ED" /><path d="M510.341565 3.561739a547.57287 547.57287 0 0 1 133.531826 16.361739c10.930087 3.550609 20.936348 6.656 31.421218 9.683479v357.810086L318.864696 39.334957A531.500522 531.500522 0 0 1 452.251826 6.611478 549.097739 549.097739 0 0 1 510.374957 3.561739h-0.033392z" fill="#FA554B" /></svg>