<?xml version="1.0" standalone="no"?><!DOCTYPE svg PUBLIC "-//W3C//DTD SVG 1.1//EN" "http://www.w3.org/Graphics/SVG/1.1/DTD/svg11.dtd"><svg class="icon" width="200px" height="200.00px" viewBox="0 0 1024 1024" version="1.1" xmlns="http://www.w3.org/2000/svg"><path fill="#aaaaaa" d="M938.026987 0c47.08046 0 85.461269 38.38081 85.461269 85.461269v853.077462c0 47.08046-38.38081 85.461269-85.461269 85.461269H85.461269C38.38081 1023.488256 0 985.107446 0 938.026987V85.461269C0 38.38081 38.38081 0 85.461269 0h852.565718zM895.552224 85.461269H127.936032c-23.54023 0-42.474763 18.934533-42.474763 42.474763v767.616192c0 23.54023 18.934533 42.474763 42.474763 42.474763h767.616192c23.54023 0 42.474763-18.934533 42.474763-42.474763V127.936032c0-23.54023-18.934533-42.474763-42.474763-42.474763z"  /><path fill="#aaaaaa" d="M716.441779 573.153423H307.046477c-33.775112 0-61.409295-27.634183-61.409296-61.409295s27.634183-61.409295 61.409296-61.409295h409.395302c33.775112 0 61.409295 27.634183 61.409295 61.409295s-27.634183 61.409295-61.409295 61.409295z"  /><path fill="#aaaaaa" d="M450.334833 716.441779V307.046477c0-33.775112 27.634183-61.409295 61.409295-61.409296s61.409295 27.634183 61.409295 61.409296v409.395302c0 33.775112-27.634183 61.409295-61.409295 61.409295s-61.409295-27.634183-61.409295-61.409295z"  /></svg>