<?xml version="1.0" standalone="no"?><!DOCTYPE svg PUBLIC "-//W3C//DTD SVG 1.1//EN" "http://www.w3.org/Graphics/SVG/1.1/DTD/svg11.dtd"><svg class="icon" width="200px" height="200.00px" viewBox="0 0 1024 1024" version="1.1" xmlns="http://www.w3.org/2000/svg"><path fill="#42b983" d="M832.658347 320C832.658347 145.066667 687.59168 0 512.658347 0S192.658347 145.066667 192.658347 320c0 110.933333 55.466667 209.066667 140.8 264.533333-170.666667 59.733333-298.666667 204.8-332.8 388.266667-4.266667 21.333333 12.8 46.933333 34.133333 51.2H43.325013c21.333333 0 38.4-12.8 42.666667-34.133333 38.4-204.8 217.6-349.866667 426.666667-349.866667 174.933333 0 320-145.066667 320-320zM512.658347 554.666667c-128 0-234.666667-106.666667-234.666667-234.666667S384.658347 85.333333 512.658347 85.333333s234.666667 106.666667 234.666666 234.666667S640.658347 554.666667 512.658347 554.666667zM981.99168 768h-128v-128c0-25.6-17.066667-42.666667-42.666667-42.666667s-42.666667 17.066667-42.666666 42.666667v128h-128c-25.6 0-42.666667 17.066667-42.666667 42.666667s17.066667 42.666667 42.666667 42.666666h128v128c0 25.6 17.066667 42.666667 42.666666 42.666667s42.666667-17.066667 42.666667-42.666667v-128h128c25.6 0 42.666667-17.066667 42.666667-42.666666s-17.066667-42.666667-42.666667-42.666667z" /></svg>