<?xml version="1.0" standalone="no"?><!DOCTYPE svg PUBLIC "-//W3C//DTD SVG 1.1//EN" "http://www.w3.org/Graphics/SVG/1.1/DTD/svg11.dtd"><svg class="icon" width="200px" height="175.04px" viewBox="0 0 1170 1024" version="1.1" xmlns="http://www.w3.org/2000/svg"><path fill="#bcbcbc" d="M469.577143 73.142857l83.382857 243.565714a73.142857 73.142857 0 0 0 69.485714 49.737143H1097.142857v512a73.142857 73.142857 0 0 1-73.142857 73.142857H146.285714a73.142857 73.142857 0 0 1-73.142857-73.142857V111.908571A39.497143 39.497143 0 0 1 111.908571 73.142857h357.668572m0-73.142857H111.908571A112.64 112.64 0 0 0 0 111.908571V877.714286a146.285714 146.285714 0 0 0 146.285714 146.285714h877.714286a146.285714 146.285714 0 0 0 146.285714-146.285714V347.428571a54.857143 54.857143 0 0 0-54.857143-54.857142H622.445714L539.062857 49.737143A73.142857 73.142857 0 0 0 469.577143 0zM919.405714 73.142857H512v73.142857h405.211429a33.645714 33.645714 0 0 1 33.645714 33.645715V365.714286h73.142857V177.737143A104.594286 104.594286 0 0 0 919.405714 73.142857zM365.714286 585.142857h365.714285v73.142857H365.714286zM512 438.857143h73.142857v365.714286H512z" /></svg>