<?xml version="1.0" standalone="no"?><!DOCTYPE svg PUBLIC "-//W3C//DTD SVG 1.1//EN" "http://www.w3.org/Graphics/SVG/1.1/DTD/svg11.dtd"><svg class="icon" width="200px" height="200.00px" viewBox="0 0 1024 1024" version="1.1" xmlns="http://www.w3.org/2000/svg"><path fill="#42b983" d="M925.218133 246.715733c0-18.6368-18.6368-32.631467-37.2736-32.631466h-153.6v-13.9264C734.344533 88.405333 636.654933 0 520.260267 0 403.933867 0 306.176 88.405333 306.176 200.157867v13.9264h-153.6c-18.6368 0-32.631467 13.994667-37.2736 32.631466l-46.557867 671.744c0 9.352533 4.7104 18.6368 9.352534 27.989334a35.498667 35.498667 0 0 0 23.210666 9.284266h837.8368c9.352533 0 18.6368-4.642133 27.989334-9.284266 4.642133-9.352533 9.284267-18.6368 9.284266-27.989334l-51.2-671.744z m-549.2736-46.557866c0-69.8368 65.194667-130.389333 144.315734-130.389334 79.189333 0 144.315733 55.9104 144.315733 130.389334v13.9264H375.944533v-13.9264zM138.581333 885.896533l46.557867-601.975466h121.0368v111.684266h69.768533V283.989333h288.631467v111.684267h69.768533V283.989333h121.0368l41.915734 601.975467H138.581333z"  /></svg>