<?xml version="1.0" standalone="no"?><!DOCTYPE svg PUBLIC "-//W3C//DTD SVG 1.1//EN" "http://www.w3.org/Graphics/SVG/1.1/DTD/svg11.dtd"><svg class="icon" width="200px" height="200.00px" viewBox="0 0 1024 1024" version="1.1" xmlns="http://www.w3.org/2000/svg"><path fill="#bbe6d6" d="M524.928 997.12c-147.648 0-425.92-218.688-425.92-426.24V178.24c0-5.568 2.816-8.32 5.76-13.952a21.504 21.504 0 0 1 14.08-5.632h22.848a654.272 654.272 0 0 0 193.024-39.232A907.52 907.52 0 0 0 499.392 35.2l14.208-8.32h11.328c2.816 0 8.448 0 11.328 2.816l14.144 8.32c51.2 36.48 107.968 64.512 164.672 86.912a659.2 659.2 0 0 0 193.088 39.296h22.784c5.696 0 8.448 2.752 14.144 5.632 5.76 2.752 5.76 8.32 5.76 13.952v392.576c0 204.736-278.336 420.672-425.92 420.672zM885.632 225.92a765.12 765.12 0 0 1-193.088-41.984 1319.552 1319.552 0 0 1-167.552-81.28c-53.888 33.6-107.904 61.696-167.488 81.28-62.592 22.336-125.056 39.168-193.28 41.984v344.96c0 162.688 241.28 358.976 360.704 358.976 85.12-14.016 164.672-53.248 224.256-115.008 76.672-58.88 124.992-148.608 136.32-243.968v-344.96h0.128z m-389.12 437.504a36.48 36.48 0 0 1-28.352 11.2 36.48 36.48 0 0 1-28.416-11.2l-116.48-115.072a38.592 38.592 0 0 1 0-53.248 39.872 39.872 0 0 1 53.888 0L465.152 584.96l224.32-221.568a39.872 39.872 0 0 1 53.888 0 38.592 38.592 0 0 1 0 53.248l-246.848 246.848z" /></svg>