<?xml version="1.0" standalone="no"?><!DOCTYPE svg PUBLIC "-//W3C//DTD SVG 1.1//EN" "http://www.w3.org/Graphics/SVG/1.1/DTD/svg11.dtd"><svg class="icon" width="200px" height="150.92px" viewBox="0 0 1357 1024" version="1.1" xmlns="http://www.w3.org/2000/svg"><path fill="#42b983" d="M1042.604583 1023.532548H314.127636A314.034146 314.034146 0 0 1 92.181503 487.365288a310.481512 310.481512 0 0 1 143.320734-81.991053 444.827171 444.827171 0 0 1 886.101707 0 315.529992 315.529992 0 0 1 235.034785 304.591619 314.127636 314.127636 0 0 1-314.034146 314.034146zM677.992148 84.141331a361.807724 361.807724 0 0 0-360.311878 356.478773V476.800876l-35.806811 5.04848A230.173286 230.173286 0 0 0 84.141331 709.965854a230.173286 230.173286 0 0 0 229.986305 229.892815h728.476947a229.986305 229.986305 0 0 0 229.892815-229.892815A230.827718 230.827718 0 0 0 1075.139231 481.849356l-35.806811-5.04848v-36.180772A361.807724 361.807724 0 0 0 678.36611 84.141331zM1310.734958 747.362001a41.977175 41.977175 0 0 1-42.070665-42.070665 226.433671 226.433671 0 0 0-386.582672-160.05551 42.145458 42.145458 0 0 1-59.553364-59.646855 310.668493 310.668493 0 0 1 530.277367 219.608874 42.070666 42.070666 0 0 1-42.070666 42.164156z" /></svg>