<?xml version="1.0" standalone="no"?><!DOCTYPE svg PUBLIC "-//W3C//DTD SVG 1.1//EN" "http://www.w3.org/Graphics/SVG/1.1/DTD/svg11.dtd"><svg class="icon" width="200px" height="171.52px" viewBox="0 0 1194 1024" version="1.1" xmlns="http://www.w3.org/2000/svg"><path fill="#42b983" d="M1066.069333 101.12C935.082667-27.989333 721.066667-32.682667 584.362667 90.624c-136.874667-123.306667-350.72-118.613333-481.706667 10.496a338.346667 338.346667 0 0 0-3.328 481.706667l3.242667 3.157333 403.626666 395.946667a110.336 110.336 0 0 0 154.794667 1.450666l1.450667-1.365333 403.626666-395.690667a338.261333 338.261333 0 0 0 3.413334-481.706666 297.472 297.472 0 0 0-3.413334-3.498667zM1013.76 535.04l-403.541333 395.946667a36.693333 36.693333 0 0 1-51.626667 0.256l-0.170667-0.256L154.453333 535.04a267.008 267.008 0 0 1-2.56-380.416l2.56-2.56C258.304 50.858667 427.178667 48.042667 534.613333 145.92l49.664 42.325333 49.237334-42.24C741.546667 48.554667 910.336 52.053333 1013.76 153.856a267.178667 267.178667 0 0 1 0.682667 380.586667l-0.682667 0.597333zM782.336 232.277333c0 9.984 8.106667 18.090667 18.176 18.090667 65.621333 0 118.613333 52.650667 118.613333 117.504 0 9.984 8.192 18.090667 18.346667 18.090667a18.176 18.176 0 0 0 18.261333-18.090667 154.453333 154.453333 0 0 0-155.221333-153.6 18.176 18.176 0 0 0-18.176 17.92v0.085333z" /></svg>