<?xml version="1.0" standalone="no"?><!DOCTYPE svg PUBLIC "-//W3C//DTD SVG 1.1//EN" "http://www.w3.org/Graphics/SVG/1.1/DTD/svg11.dtd"><svg class="icon" width="200px" height="200.00px" viewBox="0 0 1024 1024" version="1.1" xmlns="http://www.w3.org/2000/svg"><path fill="#ffffff" d="M512.827586 70.344828c-244.137931 0-441.931034 173.793103-441.931034 388.137931 0 127.172414 69.517241 240 177.37931 310.896551v182.344828l172.137931-113.655172s60.689655 8.551724 92.413793 8.551724c244.137931 0 441.931034-173.793103 441.931035-388.137931S756.965517 70.344828 512.827586 70.344828z m0 720.827586c-22.896552 0-68.965517-5.793103-84.689655-8l-20.689655-2.758621-17.37931 11.586207-86.62069 57.103448V739.586207l-25.103448-16.551724C231.724138 692.413793 193.103448 652.413793 166.896552 607.172414c-27.034483-46.344828-40.827586-96.551724-40.827586-148.689655 0-183.448276 173.517241-332.965517 386.75862-332.965518s386.758621 149.241379 386.758621 332.965518-173.517241 332.689655-386.758621 332.689655zM284.137931 460.413793m-63.448276 0a63.448276 63.448276 0 1 0 126.896552 0 63.448276 63.448276 0 1 0-126.896552 0ZM512.275862 460.413793m-63.448276 0a63.448276 63.448276 0 1 0 126.896552 0 63.448276 63.448276 0 1 0-126.896552 0ZM740.413793 460.413793m-63.448276 0a63.448276 63.448276 0 1 0 126.896552 0 63.448276 63.448276 0 1 0-126.896552 0Z" /></svg>