<?xml version="1.0" standalone="no"?><!DOCTYPE svg PUBLIC "-//W3C//DTD SVG 1.1//EN" "http://www.w3.org/Graphics/SVG/1.1/DTD/svg11.dtd"><svg class="icon" width="200px" height="200.00px" viewBox="0 0 1024 1024" version="1.1" xmlns="http://www.w3.org/2000/svg"><path fill="#999999" d="M511.936004 0a511.968002 511.968002 0 1 0 511.968002 511.968002 512.607962 512.607962 0 0 0-511.968002-511.968002z m0.703956 939.781264a427.173302 427.173302 0 1 1 427.36529-427.173302 427.68527 427.68527 0 0 1-427.36529 427.173302z m0-680.405475a51.51678 51.51678 0 1 0 51.51678 51.51678 51.51678 51.51678 0 0 0-51.51678-51.51678z m0 154.486345a43.709268 43.709268 0 0 0-41.27742 45.885132v290.861821a41.469408 41.469408 0 1 0 82.426848 0V459.68327a43.773264 43.773264 0 0 0-41.149428-45.885132z" /></svg>