<?xml version="1.0" standalone="no"?><!DOCTYPE svg PUBLIC "-//W3C//DTD SVG 1.1//EN" "http://www.w3.org/Graphics/SVG/1.1/DTD/svg11.dtd"><svg class="icon" width="200px" height="200.00px" viewBox="0 0 1024 1024" version="1.1" xmlns="http://www.w3.org/2000/svg"><path fill="#ffffff" d="M512 48.762C256.16 48.762 48.762 256.16 48.762 512S256.16 975.238 512 975.238 975.238 767.84 975.238 512 767.84 48.762 512 48.762zM805.08 805.08c-38.082 38.08-82.412 67.972-131.762 88.845-51.067 21.6-105.342 32.551-161.318 32.551s-110.25-10.952-161.318-32.551c-49.35-20.873-93.68-50.765-131.762-88.845-38.08-38.082-67.972-82.412-88.845-131.762-21.6-51.067-32.551-105.342-32.551-161.318s10.952-110.25 32.551-161.318c20.873-49.35 50.765-93.68 88.845-131.762 38.082-38.08 82.412-67.972 131.762-88.845 51.067-21.6 105.342-32.551 161.318-32.551s110.25 10.952 161.318 32.551c49.35 20.873 93.68 50.765 131.762 88.845 38.08 38.082 67.972 82.412 88.845 131.762 21.6 51.067 32.551 105.342 32.551 161.318s-10.952 110.25-32.551 161.318c-20.873 49.35-50.765 93.68-88.845 131.762zM487.619 243.81h48.762v390.095h-48.762V243.81zM487.619 682.667h48.762v97.523h-48.762v-97.523z" /></svg>