<?xml version="1.0" standalone="no"?><!DOCTYPE svg PUBLIC "-//W3C//DTD SVG 1.1//EN" "http://www.w3.org/Graphics/SVG/1.1/DTD/svg11.dtd"><svg class="icon" width="200px" height="200.00px" viewBox="0 0 1024 1024" version="1.1" xmlns="http://www.w3.org/2000/svg"><path fill="#42b983" d="M460.380365 780.73856L99.358925 452.89472a68.77184 68.77184 0 0 1 51.6096-114.56512H236.738765V94.28992c0-38.17472 30.80192-69.2224 68.93568-69.46816h390.7584a69.632 69.632 0 0 1 69.632 69.46816V338.3296h107.15136a68.93568 68.93568 0 0 1 51.6096 114.56512l-361.18528 327.84384a69.14048 69.14048 0 0 1-103.2192 0zM155.064525 409.06752l356.92544 323.25632 356.9664-323.25632H730.716365a35.34848 35.34848 0 0 1-35.38944-35.38944V94.28992l-389.65248 1.2288 1.80224 278.15936a35.34848 35.34848 0 0 1-35.38944 35.38944H155.064525z m42.5984 504.2176h640.08192a40.01792 40.01792 0 0 1 0 79.99488H197.662925a40.01792 40.01792 0 0 1 0-79.99488z" /></svg>