<?xml version="1.0" standalone="no"?><!DOCTYPE svg PUBLIC "-//W3C//DTD SVG 1.1//EN" "http://www.w3.org/Graphics/SVG/1.1/DTD/svg11.dtd"><svg class="icon" width="200px" height="200.00px" viewBox="0 0 1024 1024" version="1.1" xmlns="http://www.w3.org/2000/svg"><path fill="#ffffff" d="M922.804134 585.281862c-18.244447 0-30.407412 12.162965-30.407412 30.407412v103.50683c0 48.773489-24.325929 91.343865-91.343865 91.343865H216.744031c-73.099418 6.081482-91.343865-42.692006-91.343865-91.343865v-103.50683c0-18.244447-12.162965-30.407412-30.407412-30.407412s-24.325929 12.162965-24.325929 30.407412v140.117354c0 67.017936 54.733341 121.872907 121.751277 121.872906H831.581898c67.017936 0 121.751277-54.854971 121.751277-121.872906V615.689274c-6.203112-18.244447-18.366077-30.407412-30.529041-30.407412z m0 0"  /><path fill="#ffffff" d="M539.30585599 700.951657l164.32165301-158.361801c12.162965-12.162965 12.162965-30.407412 0-42.692006-12.162965-12.162965-30.407412-12.162965-42.570376 0l-115.66979499 103.50683L545.387338 177.214396c0-18.244447-12.162965-30.407412-30.407412-30.407412s-30.407412 12.162965-30.407411 30.407412l0 426.43354299-115.669795-103.50682999c-12.162965-12.162965-36.488894-12.16296501-42.570376 0-12.162965 12.162965-12.162965 30.407412 0 42.69200699l164.321653 158.36180001c0-0.243259 24.325929 24.2043 48.65185899-0.243259z m0 0"  /></svg>