<?xml version="1.0" standalone="no"?><!DOCTYPE svg PUBLIC "-//W3C//DTD SVG 1.1//EN" "http://www.w3.org/Graphics/SVG/1.1/DTD/svg11.dtd"><svg class="icon" width="200px" height="187.55px" viewBox="0 0 1092 1024" version="1.1" xmlns="http://www.w3.org/2000/svg"><path fill="#ffffff" d="M1030.23999969 866.55999969a26.016 26.016 0 0 1-25.59999938-26.23999969V527.36c0-244.15999969-194.71999969-442.87999969-433.76000062-442.87999969h-53.76C277.92000031 84.48000031 83.36 283.20000031 83.36 527.36v312.96a25.68 25.68 0 1 1-51.36 0V527.36C32 254.24 249.60000031 32 517.11999969 32h53.76C838.4 32 1056.00000031 254.24 1056.00000031 527.36v312.96a26.04799969 26.04799969 0 0 1-25.76000062 26.23999969z m-816.79999969 120.16000031h-14.23999969a71.328 71.328 0 0 1-70.40000062-71.83999969V694.88a71.472 71.472 0 0 1 70.40000062-72h14.23999969a71.472 71.472 0 0 1 70.39999969 72v220.00000031a71.328 71.328 0 0 1-70.39999969 71.83999969z m675.36 5.28h-10.39999969a73.31200031 73.31200031 0 0 1-72.32000062-73.92v-216a73.42399969 73.42399969 0 0 1 72.32000062-73.92h10.39999969a73.31200031 73.31200031 0 0 1 72.31999969 73.92v216A73.31200031 73.31200031 0 0 1 888.8 992z" /></svg>