<?xml version="1.0" standalone="no"?><!DOCTYPE svg PUBLIC "-//W3C//DTD SVG 1.1//EN" "http://www.w3.org/Graphics/SVG/1.1/DTD/svg11.dtd"><svg class="icon" width="200px" height="173.41px" viewBox="0 0 1181 1024" version="1.1" xmlns="http://www.w3.org/2000/svg"><path fill="#aaaaaa" d="M1074.984471 99.225852C941.591088-27.275343 741.481321-35.703505 608.087937 90.79769 466.345159-35.703505 266.235392-27.275343 132.881392 99.225852c-133.393384 134.929357-133.393384 345.751554 0 480.680911l391.870141 396.359909a104.840032 104.840032 0 0 0 150.052788 0l391.830756-396.359909c141.742778-126.501195 141.742778-345.790938 8.349394-480.680911z m-50.017595 430.072556l-391.870141 396.359909c-16.659404 16.856324-33.358192 16.856324-50.017596 0L182.898988 529.298408c-108.384586-101.21671-108.384586-278.286876 0-379.503585 100.035192-101.21671 266.786767-101.21671 375.171353-8.428162l50.017596 42.140809 50.017596-42.140809c108.384586-101.21671 266.786767-92.749164 375.171353 8.428162 91.725182 109.644872 91.725182 278.286876-8.31001 379.503585z" /></svg>