<?xml version="1.0" standalone="no"?><!DOCTYPE svg PUBLIC "-//W3C//DTD SVG 1.1//EN" "http://www.w3.org/Graphics/SVG/1.1/DTD/svg11.dtd"><svg class="icon" width="200px" height="200.00px" viewBox="0 0 1024 1024" version="1.1" xmlns="http://www.w3.org/2000/svg"><path fill="#ffffff" d="M733.866667 189.013333a175.786667 175.786667 0 0 1 116.266666 42.666667 181.333333 181.333333 0 0 1 8.96 264.746667l-60.373333 60.373333-271.573333 272a21.333333 21.333333 0 0 1-30.08 0L225.28 557.226667l-60.16-60.373334a181.333333 181.333333 0 0 1 8.96-264.746666 175.786667 175.786667 0 0 1 116.266667-42.666667A194.773333 194.773333 0 0 1 426.666667 245.76l54.826666 54.826667L512 330.88l30.08-30.08L597.333333 245.76a194.773333 194.773333 0 0 1 136.533334-56.746667m0-42.666666a236.8 236.8 0 0 0-166.826667 69.333333L512 270.506667l-54.826667-54.826667a236.8 236.8 0 0 0-167.04-69.333333 217.386667 217.386667 0 0 0-144.426666 53.76 224 224 0 0 0-10.88 327.04l60.373333 60.373333 271.573333 271.36a64 64 0 0 0 90.453334 0l271.573333-271.573333 60.373333-60.373334a224 224 0 0 0-10.88-327.04 217.386667 217.386667 0 0 0-144.426666-53.546666z" /></svg>