<?xml version="1.0" standalone="no"?><!DOCTYPE svg PUBLIC "-//W3C//DTD SVG 1.1//EN" "http://www.w3.org/Graphics/SVG/1.1/DTD/svg11.dtd"><svg class="icon" width="200px" height="200.00px" viewBox="0 0 1024 1024" version="1.1" xmlns="http://www.w3.org/2000/svg"><path fill="#42b983" d="M780.665263 853.962105c0 51.954526-42.199579 94.154105-94.046316 94.154106H331.452632a94.208 94.208 0 0 1-93.992421-94.154106V186.260211c0-51.954526 42.145684-94.208 93.992421-94.208h355.166315c51.846737 0 94.046316 42.253474 94.046316 94.208v667.755789zM686.618947 16.222316H331.452632A170.091789 170.091789 0 0 0 161.684211 186.260211v667.755789A170.091789 170.091789 0 0 0 331.452632 1024h355.166315a170.091789 170.091789 0 0 0 169.768421-170.037895V186.260211A170.091789 170.091789 0 0 0 686.618947 16.222316zM581.093053 754.526316H442.906947c-21.396211 0-38.696421 24.144842-38.696421 53.894737s17.300211 53.894737 38.696421 53.894736h138.186106c21.342316 0 38.696421-24.144842 38.696421-53.894736s-17.354105-53.894737-38.696421-53.894737" /></svg>