<?xml version="1.0" standalone="no"?><!DOCTYPE svg PUBLIC "-//W3C//DTD SVG 1.1//EN" "http://www.w3.org/Graphics/SVG/1.1/DTD/svg11.dtd"><svg class="icon" width="200px" height="200.00px" viewBox="0 0 1024 1024" version="1.1" xmlns="http://www.w3.org/2000/svg"><path fill="#ffffff" d="M102.4 525.824c0-102.4 97.28-235.52 235.52-235.52h358.912v122.88l189.44-194.56h-547.84C168.96 218.112 30.72 356.352 30.72 525.824c0 81.92 35.84 158.72 87.04 215.04l51.2-51.2c-51.2-46.08-66.56-117.76-66.56-163.84zM932.864 530.944c0 102.4-87.04 235.52-235.52 235.52H338.432v-122.88l-184.32 189.44h543.744c168.96 0 302.592-138.24 302.592-302.592 0-81.92-35.84-158.72-87.04-215.04l-51.2 51.2c34.816 30.72 70.656 92.16 70.656 164.352z" /></svg>