<?xml version="1.0" standalone="no"?><!DOCTYPE svg PUBLIC "-//W3C//DTD SVG 1.1//EN" "http://www.w3.org/Graphics/SVG/1.1/DTD/svg11.dtd"><svg class="icon" width="200px" height="200.00px" viewBox="0 0 1024 1024" version="1.1" xmlns="http://www.w3.org/2000/svg"><path fill="#42b983" d="M512 686.933333a213.333333 213.333333 0 0 0 213.333333-213.333333v-256c0-117.824-95.509333-213.333333-213.333333-213.333333s-213.333333 95.509333-213.333333 213.333333v256c0 117.824 95.509333 213.333333 213.333333 213.333333z m-128-469.333333a128 128 0 1 1 256 0v256a128 128 0 1 1-256 0v-256zM853.333333 426.666667a42.666667 42.666667 0 0 0-42.666666 42.666666c0 164.949333-133.717333 298.666667-298.666667 298.666667s-298.666667-133.717333-298.666667-298.666667a42.666667 42.666667 0 1 0-85.333333 0c0.085333 195.498667 147.050667 359.722667 341.333333 381.44V938.666667h-128a42.666667 42.666667 0 1 0 0 85.333333h341.333334a42.666667 42.666667 0 1 0 0-85.333333h-128v-87.893334c194.282667-21.717333 341.248-185.941333 341.333333-381.44a42.666667 42.666667 0 0 0-42.666667-42.666666z" /></svg>