<?xml version="1.0" standalone="no"?><!DOCTYPE svg PUBLIC "-//W3C//DTD SVG 1.1//EN" "http://www.w3.org/Graphics/SVG/1.1/DTD/svg11.dtd"><svg class="icon" width="200px" height="200.00px" viewBox="0 0 1024 1024" version="1.1" xmlns="http://www.w3.org/2000/svg"><path fill=" #bbe6d6" d="M767.063 40.114c2.735-13.675-3.49-28.104-16.691-35.413-16.506-9.102-37.535-3.395-46.871 12.731l-296.138 512.91c-19.052-42.017-54.605-80.919-102.893-107.609-102.328-56.304-222.479-36.97-268.785 43.193-46.213 80.07-0.944 190.649 101.196 246.953 102.326 56.207 222.573 36.877 268.69-43.195 1.134-2.025 2.074-4.147 3.111-6.084 1.323-1.743 2.643-3.486 3.869-5.374L659.927 229.49c109.59 136.09 289.722 85.116 289.722 85.116C762.351 263.583 764.8 75.669 767.063 40.114"  /><path fill=" #bbe6d6" d="M889.101 414.056c-124.583 13.627-204.087-49.608-204.087-49.608s-190.602 342.629-231.53 397c-25.37 33.904-89.029 66.726-124.492 71.959 59.509 112.983 179.945 190.224 318.863 190.224 198.147 0 358.57-156.837 358.57-350.364 0-102.655-45.27-195.079-117.324-259.211m-241.247 365.17c-59.697 0-108.359-47.437-108.359-105.959 0-58.423 48.662-105.813 108.359-105.813 59.887 0 108.46 47.391 108.46 105.813 0 58.522-48.573 105.959-108.46 105.959m225.971 112.135l-120.06-121.613s15.845-16.599 24.24-35.037l150.801 82.569s-18.39 42.865-54.981 74.081"  /></svg>