<?xml version="1.0" standalone="no"?><!DOCTYPE svg PUBLIC "-//W3C//DTD SVG 1.1//EN" "http://www.w3.org/Graphics/SVG/1.1/DTD/svg11.dtd"><svg class="icon" width="200px" height="188.93px" viewBox="0 0 1084 1024" version="1.1" xmlns="http://www.w3.org/2000/svg"><path fill="#ffffff" d="M0 78.185412C0 28.491294 35.418353 7.710118 78.727529 32.105412l203.896471 114.748235c43.369412 24.335059 43.369412 64.210824 0 88.545882L78.727529 350.147765C35.418353 374.482824 0 353.761882 0 304.067765v-225.882353zM1084.235294 592.715294a45.176471 45.176471 0 0 1-45.17647 45.176471H45.176471a45.176471 45.176471 0 1 1 0-90.352941h993.882353a45.176471 45.176471 0 0 1 45.17647 45.17647z m0 386.048a45.176471 45.176471 0 0 1-45.17647 45.176471H45.176471a45.176471 45.176471 0 1 1 0-90.352941h993.882353a45.176471 45.176471 0 0 1 45.17647 45.17647z m0-780.348235a45.176471 45.176471 0 0 1-45.17647 45.17647h-542.117648a45.176471 45.176471 0 1 1 0-90.352941h542.117648a45.176471 45.176471 0 0 1 45.17647 45.176471z"  /></svg>