<?xml version="1.0" standalone="no"?><!DOCTYPE svg PUBLIC "-//W3C//DTD SVG 1.1//EN" "http://www.w3.org/Graphics/SVG/1.1/DTD/svg11.dtd"><svg class="icon" width="200px" height="200.00px" viewBox="0 0 1024 1024" version="1.1" xmlns="http://www.w3.org/2000/svg"><path fill="#ffffff" d="M296.64 808.96a96 96 0 0 1-50.56-14.4 85.92 85.92 0 0 1-41.92-73.12V261.92a85.92 85.92 0 0 1 41.92-73.12 96.8 96.8 0 0 1 94.88-3.84l4 2.4 311.84 224.8a84.96 84.96 0 0 1 0 151.52l-313.6 233.6-2.24 1.12a98.88 98.88 0 0 1-44.32 10.56z m0-576a38.4 38.4 0 0 0-20.16 5.76 28.64 28.64 0 0 0-14.4 23.84v458.88a28.64 28.64 0 0 0 14.4 23.84 39.2 39.2 0 0 0 36.48 2.24l313.44-233.12 2.24-1.12a27.2 27.2 0 0 0 0-50.24l-4.64-2.56-311.52-224a40.64 40.64 0 0 0-15.68-4.16zM703.36 174.4m25.6 0l0.16 0q25.6 0 25.6 25.6l0 583.36q0 25.6-25.6 25.6l-0.16 0q-25.6 0-25.6-25.6l0-583.36q0-25.6 25.6-25.6Z" /></svg>