<?xml version="1.0" standalone="no"?><!DOCTYPE svg PUBLIC "-//W3C//DTD SVG 1.1//EN" "http://www.w3.org/Graphics/SVG/1.1/DTD/svg11.dtd"><svg class="icon" width="200px" height="200.00px" viewBox="0 0 1024 1024" version="1.1" xmlns="http://www.w3.org/2000/svg"><path fill="#ffffff" d="M512 1023.534545C232.261818 1023.534545 0.465455 791.738182 0.465455 512S232.261818 0.465455 512 0.465455 1023.534545 232.261818 1023.534545 512 791.738182 1023.534545 512 1023.534545z m0-959.115636A446.836364 446.836364 0 0 0 64.418909 512 446.836364 446.836364 0 0 0 512 959.581091 446.836364 446.836364 0 0 0 959.581091 512 446.836364 446.836364 0 0 0 512 64.418909zM408.110545 703.813818c-16.011636 0-31.976727-15.965091-31.976727-31.976727V352.162909c0-16.011636 15.965091-31.976727 31.976727-31.976727 15.965091 0 31.976727 15.965091 31.976728 31.976727v319.674182c0 16.011636-8.005818 31.976727-31.976728 31.976727z m207.77891 0c-15.965091 0-31.976727-15.965091-31.976728-31.976727V352.162909c0-16.011636 8.005818-31.976727 31.976728-31.976727 23.970909 0 31.976727 15.965091 31.976727 31.976727v319.674182c0 16.011636-15.965091 31.976727-31.976727 31.976727z" /></svg>