<?xml version="1.0" standalone="no"?><!DOCTYPE svg PUBLIC "-//W3C//DTD SVG 1.1//EN" "http://www.w3.org/Graphics/SVG/1.1/DTD/svg11.dtd"><svg class="icon" width="200px" height="200.00px" viewBox="0 0 1024 1024" version="1.1" xmlns="http://www.w3.org/2000/svg"><path fill="#bbe6d6" d="M180.166871 713.629183h679.128415v-61.97347H180.166871v61.97347z m0-526.769378v61.97347h679.128415v-61.97347H180.166871z"  /><path fill="#bbe6d6" d="M748.272703 0.941442H283.474748c-85.423555 0-154.931628 69.508074-154.931628 154.932651V868.561835c0 85.393879 69.508074 154.931628 154.931628 154.931628H748.272703c85.423555 0 154.930605-69.537749 154.930605-154.931628V155.874093C903.203308 70.449515 833.696258 0.941442 748.272703 0.941442z m92.959182 867.650069c0 51.261501-41.698704 92.960205-92.959182 92.960205H283.474748c-51.260477 0-92.959182-41.698704-92.959182-92.960205V155.903769c0-51.230802 41.698704-92.959182 92.959182-92.959181H748.272703c51.260477 0 92.959182 41.72838 92.959182 92.959181v712.687742z"  /><path fill="#bbe6d6" d="M519.74694 783.378757c25.66145 0 46.480614 20.819165 46.480614 46.479591 0 25.691125-20.819165 46.479591-46.480614 46.479591-25.660426 0-46.479591-20.787442-46.479591-46.479591 0-25.660426 20.819165-46.479591 46.479591-46.479591z"  /></svg>