<?xml version="1.0" standalone="no"?><!DOCTYPE svg PUBLIC "-//W3C//DTD SVG 1.1//EN" "http://www.w3.org/Graphics/SVG/1.1/DTD/svg11.dtd"><svg class="icon" width="200px" height="200.00px" viewBox="0 0 1024 1024" version="1.1" xmlns="http://www.w3.org/2000/svg"><path fill="#ffffff" d="M375.466667 341.333333c-0.682667 34.816-0.170667 312.32 0 341.333334s33.109333 48.298667 85.333333 17.066666 194.218667-118.784 221.866667-136.533333 61.952-60.416 0-102.4-203.776-132.096-238.933334-153.6-67.413333-6.997333-68.266666 34.133333z m136.533333 682.496A511.829333 511.829333 0 1 1 1023.829333 512 511.8976 511.8976 0 0 1 512 1023.829333z m0-962.730666A450.901333 450.901333 0 1 0 962.901333 512 450.935467 450.935467 0 0 0 512 61.098667z" /></svg>