<?xml version="1.0" standalone="no"?><!DOCTYPE svg PUBLIC "-//W3C//DTD SVG 1.1//EN" "http://www.w3.org/Graphics/SVG/1.1/DTD/svg11.dtd"><svg class="icon" width="200px" height="200.00px" viewBox="0 0 1024 1024" version="1.1" xmlns="http://www.w3.org/2000/svg"><path fill="#aaaaaa" d="M512 64C264.6 64 64 264.6 64 512s200.6 448 448 448 448-200.6 448-448S759.4 64 512 64z m0 851.2c-222.7 0-403.2-180.5-403.2-403.2S289.3 108.8 512 108.8 915.2 289.3 915.2 512 734.7 915.2 512 915.2z m147.3-431.6c-58.6-39.9-164.8-99.5-225.3-136.5-24.8-15.6-45.6-9.4-47.6 18.3-1.5 74 0 216.7 0 291.9 1.3 28 26 31.7 47.4 20.5 60.4-36.6 164.2-99.5 225-136.3-0.4-0.2 46.1-25.8 0.5-57.9z" /></svg>