<?xml version="1.0" standalone="no"?><!DOCTYPE svg PUBLIC "-//W3C//DTD SVG 1.1//EN" "http://www.w3.org/Graphics/SVG/1.1/DTD/svg11.dtd"><svg class="icon" width="200px" height="200.00px" viewBox="0 0 1024 1024" version="1.1" xmlns="http://www.w3.org/2000/svg"><path fill="#ffffff" d="M664.64 177.12a96 96 0 0 1 50.56 14.4 85.92 85.92 0 0 1 41.92 73.12v459.52a85.92 85.92 0 0 1-41.92 73.12 96.8 96.8 0 0 1-94.88 3.84l-4-2.4L304 573.76a84.96 84.96 0 0 1 0-151.52L618.08 188.8l2.24-1.12a98.88 98.88 0 0 1 44.32-10.56z m0 576a38.4 38.4 0 0 0 20.16-5.76 28.64 28.64 0 0 0 14.4-23.84V264.64a28.64 28.64 0 0 0-14.4-24.64 39.2 39.2 0 0 0-36.48-2.24L334.88 471.68l-2.24 1.12a27.2 27.2 0 0 0 0 50.24l4 2.4 311.52 224a40.64 40.64 0 0 0 16.48 4.32zM257.92 811.68m-25.6 0l-0.16 0q-25.6 0-25.6-25.6l0-583.36q0-25.6 25.6-25.6l0.16 0q25.6 0 25.6 25.6l0 583.36q0 25.6-25.6 25.6Z" /></svg>