<?xml version="1.0" standalone="no"?><!DOCTYPE svg PUBLIC "-//W3C//DTD SVG 1.1//EN" "http://www.w3.org/Graphics/SVG/1.1/DTD/svg11.dtd"><svg class="icon" width="200px" height="200.00px" viewBox="0 0 1024 1024" version="1.1" xmlns="http://www.w3.org/2000/svg"><path fill="#000000" d="M874.666667 85.333333a64 64 0 0 1 64 64v725.333334a64 64 0 0 1-64 64H149.333333a64 64 0 0 1-64-64V149.333333a64 64 0 0 1 64-64h725.333334z m0 64H149.333333v725.333334h725.333334V149.333333zM448.128 633.642667l253.013333-291.925334a32 32 0 0 1 50.389334 39.317334l-2.005334 2.581333-278.336 321.109333-2.346666 2.24c-1.002667 0.853333-2.026667 1.621333-3.072 2.325334l-2.752 1.642666-2.346667 1.130667-2.944 1.088-2.218667 0.64-2.197333 0.426667-2.346667 0.32-2.944 0.128-3.029333-0.149334-3.84-0.597333-3.072-0.832-1.408-0.490667-2.944-1.28-2.709333-1.514666-2.709334-1.898667-2.346666-2.026667-2.261334-2.389333-128-149.333333a32 32 0 0 1 46.336-44.032l2.261334 2.389333 103.829333 121.130667 253.013333-291.925334-253.013333 291.925334z"  /></svg>