<?xml version="1.0" standalone="no"?><!DOCTYPE svg PUBLIC "-//W3C//DTD SVG 1.1//EN" "http://www.w3.org/Graphics/SVG/1.1/DTD/svg11.dtd"><svg class="icon" width="200px" height="200.00px" viewBox="0 0 1024 1024" version="1.1" xmlns="http://www.w3.org/2000/svg"><path fill="#87ceeb" d="M512.132993 1023.998464a511.972993 511.972993 0 1 1 361.990505-149.982488A508.82436 508.82436 0 0 1 512.132993 1023.998464z m1.587117-323.336544h8.90833c6.194873 19.659763 38.218784 33.892612 76.130384 33.892612 43.056929 0 76.795949-17.919055 76.795949-40.548261 0-12.799325-12.389746-25.59865-32.331095-32.843067a108.231091 108.231091 0 0 0 36.78526-57.801751c11.544991 17.355884 23.038785 27.288161 31.742326 27.28816a10.597841 10.597841 0 0 0 4.838144-1.151939c13.234502-6.553254 10.495446-44.695242-5.990084-83.298006a110.842153 110.842153 0 0 0-43.517704-58.441717 22.833996 22.833996 0 0 1 0.230388-2.559865 24.165125 24.165125 0 0 0 0.307184-3.558213 59.491262 59.491262 0 0 0-8.908331-31.63993v-2.252682a32.663877 32.663877 0 0 0-3.276627-14.898414c-3.660607-85.857871-58.876894-143.480431-137.311157-143.480431s-133.727346 57.648159-137.183163 143.480431a33.124653 33.124653 0 0 0-3.404621 14.898414v2.252682a60.515208 60.515208 0 0 0-8.90833 31.63993v6.143676a112.813249 112.813249 0 0 0-42.775343 58.441718c-16.075952 39.345125-18.815008 76.795949-6.143676 83.298006a9.829881 9.829881 0 0 0 4.710151 1.151939c8.677942 0 20.65811-10.23946 32.04951-27.288161a109.101445 109.101445 0 0 0 36.631667 57.801751c-19.838953 7.295615-32.177503 19.890151-32.177502 32.843068 0 22.347621 34.378987 40.548261 76.642357 40.548261 37.988396 0 70.012307-14.258448 76.130384-33.841415z"  /></svg>