<?xml version="1.0" standalone="no"?><!DOCTYPE svg PUBLIC "-//W3C//DTD SVG 1.1//EN" "http://www.w3.org/Graphics/SVG/1.1/DTD/svg11.dtd"><svg class="icon" width="200px" height="200.00px" viewBox="0 0 1024 1024" version="1.1" xmlns="http://www.w3.org/2000/svg"><path fill="#42b983" d="M511.793152 8.599552C233.641984 8.599552 8.192 234.070016 8.192 512.200704 8.192 790.337536 233.664512 1015.808 511.793152 1015.808c278.136832 0 503.607296-225.470464 503.607296-503.607296 0-278.130688-225.470464-503.601152-503.607296-503.601152z m0 944.498688c-243.478528 0-440.868864-197.410816-440.868864-440.897536 0-243.478528 197.388288-440.868864 440.868864-440.868864 243.458048 0 440.868864 197.36576 440.868864 440.868864 0 243.5072-197.410816 440.897536-440.868864 440.897536z m0 0M793.696256 512.200704H527.43168V246.059008c0-9.467904-11.268096-17.14176-25.227264-17.14176h-12.611584c-13.93664 0-25.23136 7.673856-25.23136 17.14176v311.947264c0 4.440064 2.496512 8.491008 6.547456 11.511808 2.953216 3.50208 6.713344 5.615616 10.817536 5.615616h311.969792c9.474048 0 17.119232-11.296768 17.119232-25.204736v-12.541952c-0.02048-13.889536-7.694336-25.186304-17.119232-25.186304z m0 0" /></svg>