<?xml version="1.0" standalone="no"?><!DOCTYPE svg PUBLIC "-//W3C//DTD SVG 1.1//EN" "http://www.w3.org/Graphics/SVG/1.1/DTD/svg11.dtd"><svg class="icon" width="200px" height="200.00px" viewBox="0 0 1024 1024" version="1.1" xmlns="http://www.w3.org/2000/svg"><path fill="#ffffff" d="M974.848 481.28H124.928L536.576 69.632c12.288-12.288 12.288-32.768 0-45.056-12.288-12.288-32.768-12.288-45.056 0L51.2 466.944l-22.528 22.528c-12.288 12.288-12.288 32.768 0 45.056l22.528 22.528 442.368 442.368c12.288 12.288 32.768 12.288 45.056 0 12.288-12.288 12.288-32.768 0-45.056L124.928 542.72h847.872c16.384 0 30.72-14.336 30.72-30.72 2.048-16.384-12.288-30.72-28.672-30.72z" /></svg>