<?xml version="1.0" standalone="no"?><!DOCTYPE svg PUBLIC "-//W3C//DTD SVG 1.1//EN" "http://www.w3.org/Graphics/SVG/1.1/DTD/svg11.dtd"><svg class="icon" width="200px" height="200.00px" viewBox="0 0 1024 1024" version="1.1" xmlns="http://www.w3.org/2000/svg"><path fill="#ffffff" d="M867.62496 1006.61248c-76.9024 0-140.22656-57.4464-149.84192-131.72736l-274.944-102.28736c-41.94304 66.80576-115.94752 111.39072-200.64256 111.39072C111.26784 883.97824 5.12 777.84064 5.12 646.89152c0-130.93888 106.14784-237.07648 237.08672-237.07648 51.34336 0 98.73408 16.4864 137.55392 44.21632l135.40352-122.71616 63.41632-58.2144c-25.97888-27.15648-42.04544-63.8976-42.04544-104.45824 0-83.52768 67.72736-151.2448 151.2448-151.2448 83.53792 0 151.25504 67.71712 151.25504 151.2448 0 83.52768-67.70688 151.2448-151.25504 151.2448-28.03712 0-54.19008-7.82336-76.67712-21.12512l-199.24992 182.8864c41.65632 42.7008 67.46112 100.90496 67.46112 165.25312 0 31.51872-6.3488 61.4912-17.53088 89.00608l256.7168 95.47776c11.53024-72.11008 73.79968-127.26272 149.13536-127.26272 83.53792 0 151.25504 67.7376 151.25504 151.25504C1018.88 938.9056 951.17312 1006.61248 867.62496 1006.61248zM687.7696 283.36128c60.83584 0 114.7392-49.6128 114.7392-114.72896 0-75.1104-56.61696-114.72896-114.7392-114.72896-59.46368 0-114.70848 48.45568-114.70848 114.72896C573.06112 235.12064 626.25792 283.36128 687.7696 283.36128zM242.20672 457.76896c-99.88096 0-189.1328 81.92-189.1328 189.12256 0 91.52512 84.26496 189.14304 189.1328 189.14304 99.81952 0 189.12256-96.5632 189.12256-189.14304C431.32928 553.28768 355.6864 457.76896 242.20672 457.76896zM867.62496 740.6592c-52.92032 0-114.70848 46.21312-114.70848 114.70848 0 59.33056 54.80448 114.7392 114.70848 114.7392 60.71296 0 114.7392-55.6032 114.7392-114.7392C982.3744 793.10848 926.78144 740.6592 867.62496 740.6592z" /></svg>